<svg id="Capa_1" enable-background="new 0 0 512 512" height="512" viewBox="0 0 512 512" width="512" xmlns="http://www.w3.org/2000/svg"><g><path d="m430.67 348.897v-37.856-69.358c0-.003 0-.007 0-.011v-22.104-85.108c0-.003 0-.007 0-.011v-6.354-47.252c0-4.234-3.433-7.666-7.669-7.666h-52.219c-.005 0-.011 0-.017 0 0 0-.632.02-.807.037-.1.009-5.689.533-6.841 6.436-.02.127-.069.58-.076.68-.01.155-.026.496-.026.512v47.253 91.473 91.473 91.472c0 4.234 3.432 7.665 7.668 7.666h.001 52.32c4.236 0 7.669-3.432 7.669-7.666v-53.606c-.003-.003-.003-.007-.003-.01zm-15.338-129.328v3.273l-33.937-34.776 33.937-34.775zm-3.045 22.109-33.937 34.776v-56.885-12.666zm-33.937 72.449 33.937 34.776-33.937 34.775zm3.045-18.837 33.937-34.776v50.527 19.024zm33.937-206.781v27.11l-26.456-27.11zm-36.982 39.587v-28.417l33.937 34.776-33.937 34.775zm10.526 266.751 26.456-27.109v27.109z" fill="#baafb9"/><path d="m169.155 260.205h-34.619v-22.99c0-4.234-3.433-7.666-7.669-7.666s-7.669 3.432-7.669 7.666v22.99h-34.62c-4.236 0-7.669 3.432-7.669 7.666s3.433 7.666 7.669 7.666h34.619v46.938c0 4.234 3.433 7.666 7.669 7.666s7.669-3.432 7.669-7.666v-46.938h34.619c4.236 0 7.669-3.432 7.669-7.666.001-4.234-3.432-7.666-7.668-7.666z" fill="#737a93"/><path clip-rule="evenodd" d="m169.157 324.871v180.314c0 2.627-1.636 4.814-3.63 4.814h-161.897c-2.025.001-3.63-2.186-3.63-4.813v-331.09c0-2.658 1.605-4.814 3.63-4.814h78.643c1.483 0 2.301 1.083 2.301 2.392v150.805h81.946c1.001 0 2.637.808 2.637 2.392z" fill="#e8eaea" fill-rule="evenodd"/><path d="m207.004 139.413-35.738-37.817v-34.084c0-4.234-3.433-7.666-7.669-7.666s-7.669 3.432-7.669 7.666v34.098l-35.498 37.803c-2.903 3.084-2.755 7.936.33 10.836 1.481 1.393 3.369 2.083 5.254 2.083 2.041 0 4.077-.81 5.586-2.413l32.015-34.093 32.219 34.093c1.509 1.603 3.545 2.413 5.586 2.413 1.885 0 3.774-.69 5.254-2.083 3.086-2.9 3.233-7.752.33-10.836z" fill="#737a93"/><path d="m343.104 59.846h-22.168-12.68l40.192-39.018c3.038-2.95 3.109-7.803.158-10.84-1.357-1.395-3.116-2.156-4.916-2.294-.126-.014-.554-.031-.585-.031h-22.168-85.324c-.009 0-.018 0-.026 0h-6.362-109.787c-7.744 0-14.044 5.69-14.044 12.684v42.148c0 6.993 6.3 12.683 14.044 12.683h109.785 91.712 22.168c4.236 0 7.669-3.432 7.669-7.666s-3.432-7.666-7.668-7.666zm-222.372-.004v-36.846h4.251l37.956 36.848zm26.267-36.846h69.696l-34.848 33.83zm82.224 36.85-28.471-.001 34.847-33.829 34.848 33.83zm25.28-36.85h66.432 3.264l-34.848 33.83z" fill="#baafb9"/><path d="m497.985 7.664h-47.407c-.021 0-.038.002-.059.002-.066 0-.301.012-.348.016-1.862.099-3.694.864-5.095 2.307-2.951 3.037-2.879 7.892.16 10.84l40.203 39.017h-34.86c-4.236 0-7.669 3.432-7.669 7.666s3.433 7.666 7.669 7.666h47.407c3.396 0 6.513-1.1 8.941-2.926.44-.295.856-.638 1.24-1.033.087-.089.162-.185.243-.277 2.224-2.246 3.59-5.201 3.59-8.447v-42.148c0-6.994-6.287-12.683-14.015-12.683zm-1.323 41.705-27.174-26.372 27.174.002z" fill="#baafb9"/><g clip-rule="evenodd" fill-rule="evenodd"><path d="m84.581 360.72v38.85h-47.09c-2.07 0-3.8-1.69-3.8-3.79v-31.27c0-2.07 1.73-3.79 3.8-3.79z" fill="#6bd9e7"/><path d="m135.431 364.51v31.27c0 2.1-1.69 3.79-3.77 3.79h-47.08v-38.85h47.08c2.08 0 3.77 1.72 3.77 3.79z" fill="#6bd9e7"/><path d="m135.431 441.6v31.27c0 2.1-1.69 3.79-3.77 3.79h-47.08v-38.85h47.08c2.08 0 3.77 1.72 3.77 3.79z" fill="#6bd9e7"/><path d="m84.581 437.81v38.85h-47.09c-2.07 0-3.8-1.69-3.8-3.79v-31.27c0-2.07 1.73-3.79 3.8-3.79z" fill="#6bd9e7"/><path d="m84.578 360.715h-47.084c-2.076 0-3.802 1.721-3.802 3.792v15.634c0-2.071 1.725-3.792 3.802-3.792h47.084z" fill="#00c7dd"/><path d="m131.663 360.715h-47.085v15.634h47.084c2.076 0 3.773 1.721 3.773 3.792v-15.634c0-2.071-1.696-3.792-3.772-3.792z" fill="#00c7dd"/><path d="m131.663 437.808h-47.085v15.634h47.084c2.076 0 3.773 1.721 3.773 3.792v-15.634c0-2.071-1.696-3.792-3.772-3.792z" fill="#00c7dd"/><path d="m84.578 437.808h-47.084c-2.076 0-3.802 1.721-3.802 3.792v15.634c0-2.071 1.725-3.792 3.802-3.792h47.084z" fill="#00c7dd"/></g><path d="m76.911 360.72h15.34v38.85h-15.34z" fill="#cecece"/><path d="m76.911 437.81h15.34v38.85h-15.34z" fill="#cecece"/><path clip-rule="evenodd" d="m169.155 505.187v-180.32c0-1.575-1.638-2.392-2.632-2.392h-19.799c.994 0 2.603.817 2.603 2.392v180.32c0 2.625-1.638 4.813-3.626 4.813h19.828c1.988 0 3.626-2.188 3.626-4.813z" fill="#d4d6d8" fill-rule="evenodd"/><path clip-rule="evenodd" d="m64.75 206.53v115.945h19.828v-54.604-61.341-34.856c0-1.313-.819-2.392-2.31-2.392h-19.858c1.521 0 2.34 1.079 2.34 2.392z" fill="#d4d6d8" fill-rule="evenodd"/><path d="m84.573 196.716v14.371c-.828.317-1.718.48-2.659.48h-28.252c-4.233 0-7.669-3.424-7.669-7.666 0-4.232 3.436-7.666 7.669-7.666h28.253c.941.001 1.83.164 2.658.481z" fill="#6bd9e7"/><path d="m84.573 239.411v15.332h-30.911c-4.233 0-7.669-3.434-7.669-7.666 0-4.242 3.436-7.666 7.669-7.666z" fill="#6bd9e7"/><path clip-rule="evenodd" d="m445.607 2h-97.532c-2.749 0-4.972 2.217-4.972 4.959v8.371 52.183 8.371c0 2.713 2.223 4.959 4.972 4.959h22.606 52.319 22.606c2.749 0 4.972-2.246 4.972-4.959v-8.371-52.183-8.371c.001-2.742-2.222-4.959-4.971-4.959z" fill="#fdb440" fill-rule="evenodd"/><path clip-rule="evenodd" d="m450.579 15.33v-8.371c0-2.742-2.223-4.959-4.972-4.959h-35.533c2.72 0 4.972 2.217 4.972 4.959v8.371 52.183 8.371c0 2.713-2.252 4.959-4.972 4.959h12.926 22.606c2.749 0 4.972-2.246 4.972-4.959v-8.371-52.183z" fill="#fe9737" fill-rule="evenodd"/><path clip-rule="evenodd" d="m468.74 482.056v-67.963c0-6.388-5.235-11.58-11.639-11.58h-34.1-52.319-31.702c-6.375 0-11.61 5.192-11.61 11.58v67.963z" fill="#fdb440" fill-rule="evenodd"/><path clip-rule="evenodd" d="m468.74 471.76h-141.37-16.085c-10.557 0-19.185 8.605-19.185 19.135v13.972c0 2.829 2.34 5.134 5.176 5.134h201.556c2.837 0 5.147-2.304 5.147-5.134v-13.972c0-10.53-8.627-19.135-19.155-19.135z" fill="#cecece" fill-rule="evenodd"/><path clip-rule="evenodd" d="m468.74 414.094c0-6.388-5.235-11.58-11.639-11.58h-34.1-1.433c6.375 0 11.61 5.192 11.61 11.58v57.666h16.085 19.477z" fill="#fe9737" fill-rule="evenodd"/><path clip-rule="evenodd" d="m503.98 490.895c0-10.53-8.627-19.135-19.155-19.135h-16.085-19.477c10.557 0 19.185 8.605 19.185 19.135v13.972c0 2.829-2.34 5.134-5.176 5.134h35.562c2.837 0 5.147-2.304 5.147-5.134v-13.972z" fill="#baafb9" fill-rule="evenodd"/><path clip-rule="evenodd" d="m211.15 179.753v-35.848c0-2.479-2.047-4.492-4.533-4.492h-10.294-65.45-10.323c-2.486 0-4.504 2.013-4.504 4.492v35.848c0 2.479 2.018 4.521 4.504 4.521h86.068c2.485 0 4.532-2.041 4.532-4.521z" fill="#cecece" fill-rule="evenodd"/><path clip-rule="evenodd" d="m206.617 139.413h-10.294-19.097c2.486 0 4.533 2.013 4.533 4.492v35.848c0 2.479-2.047 4.521-4.533 4.521h29.391c2.486 0 4.533-2.042 4.533-4.521v-35.848c0-2.479-2.047-4.492-4.533-4.492z" fill="#baafb9" fill-rule="evenodd"/></g></svg>