<svg height="512" viewBox="0 0 128 128" width="512" xmlns="http://www.w3.org/2000/svg"><g id="Circle_Grid" data-name="Circle Grid"><circle cx="64" cy="64" fill="#2cbfae" r="64"/></g><g id="icon"><path d="m92.261 30.647h3.845a2.394 2.394 0 0 1 2.394 2.394 2.394 2.394 0 0 1 -2.394 2.394h-3.845a0 0 0 0 1 0 0v-4.788a0 0 0 0 1 0 0z" fill="#575b6d"/><path d="m67.406 62.325v11.039h-2.377v-11.239l-33.815-13.477a2.709 2.709 0 0 1 -1.714-2.525v-11.6a2.672 2.672 0 0 1 2.673-2.664h3.4v2.377h-3.697v12.114l33.841 13.485a2.673 2.673 0 0 1 1.689 2.49z" fill="#2cbfae"/><path d="m67.406 62.325v11.039h-2.377v-11.239l-33.815-13.477a2.709 2.709 0 0 1 -1.714-2.525v-11.6a2.672 2.672 0 0 1 2.673-2.664h3.4v2.377h-3.697v12.114l33.841 13.485a2.673 2.673 0 0 1 1.689 2.49z" fill="#eeefee"/><path d="m35.508 28.9h3.12a0 0 0 0 1 0 0v8.282a0 0 0 0 1 0 0h-3.12a.779.779 0 0 1 -.779-.779v-6.724a.779.779 0 0 1 .779-.779z" fill="#575b6d"/><rect fill="#f6c863" height="20.082" rx="2.478" width="58.636" x="36.804" y="23"/><path d="m71.63 71.139h-10.813a.525.525 0 0 0 -.494.68l.968 3.028a7.29 7.29 0 0 1 .35 2.306v26.714a1.129 1.129 0 0 0 1.133 1.133h6.879a1.116 1.116 0 0 0 1.133-1.133v-26.714a7.941 7.941 0 0 1 .35-2.306l.989-3.028a.526.526 0 0 0 -.495-.68zm-5.416 30.772a1.823 1.823 0 1 1 1.833-1.813 1.815 1.815 0 0 1 -1.833 1.813z" fill="#ef5261"/></g></svg>